<?xml version="1.0" standalone="no"?><!DOCTYPE svg PUBLIC "-//W3C//DTD SVG 1.1//EN" "http://www.w3.org/Graphics/SVG/1.1/DTD/svg11.dtd"><svg width="100%" height="100%" viewBox="0 0 1280 1280" version="1.1" xmlns="http://www.w3.org/2000/svg" xmlns:xlink="http://www.w3.org/1999/xlink" xml:space="preserve" style="fill-rule:evenodd;clip-rule:evenodd;stroke-linejoin:round;stroke-miterlimit:1.41421;"><g id="Layer1"><g><path d="M1206.56,1276.87c38.8312,0 70.297,-31.4818 70.297,-70.2971l0,-1133.14c0,-38.8312 -31.4658,-70.2972 -70.297,-70.2972l-1133.11,0c-38.8472,0 -70.3131,31.466 -70.3131,70.2972l0,1133.14c0,38.8153 31.4659,70.2971 70.3131,70.2971l1133.11,0Z" style="fill:#000;fill-rule:nonzero;"/><path d="M881.991,1276.87l0,-493.257l165.57,0l24.7845,-192.231l-190.354,0l0,-122.73c0,-55.6618 15.4466,-93.5863 95.2727,-93.5863l101.795,-0.0477704l0,-171.933c-17.626,-2.33842 -78.0443,-7.57219 -148.341,-7.57219c-146.767,0 -247.241,89.5935 -247.241,254.113l0,141.756l-165.983,0l0,192.231l165.983,0l0,493.257l198.515,0Z" style="fill:#fff;fill-rule:nonzero;"/></g></g></svg>