<?xml version="1.0" standalone="no"?><!DOCTYPE svg PUBLIC "-//W3C//DTD SVG 1.1//EN" "http://www.w3.org/Graphics/SVG/1.1/DTD/svg11.dtd"><svg width="100%" height="100%" viewBox="0 0 1181 1181" version="1.1" xmlns="http://www.w3.org/2000/svg" xmlns:xlink="http://www.w3.org/1999/xlink" xml:space="preserve" style="fill-rule:evenodd;clip-rule:evenodd;stroke-linejoin:round;stroke-miterlimit:1.41421;"><circle cx="590.551" cy="590.551" r="582.422" style="fill:#FFF;"/><path d="M383.545,284.819c38.5203,0 69.818,31.2977 69.818,69.8933c0,38.5955 -31.2977,69.8932 -69.818,69.8932c-38.746,0 -69.8932,-31.2977 -69.8932,-69.8932c0,-38.5955 31.1472,-69.8933 69.8932,-69.8933ZM323.206,477.571l120.602,0l0,387.761l-120.602,0l0,-387.761Z" style="fill:#000;fill-rule:nonzero;"/><path d="M519.419,477.571l115.486,0l0,53.0406l1.65518,0c16.1003,-30.4701 55.4481,-62.6707 114.056,-62.6707c122.031,0 144.602,80.3509 144.602,184.777l0,212.614l-120.526,0l0,-188.539c0,-44.9905 -0.752381,-102.846 -62.5955,-102.846c-62.7459,0 -72.3007,49.0532 -72.3007,99.611l0,191.774l-120.376,0l0,-387.761Z" style="fill:#000;fill-rule:nonzero;"/></svg>
