<?xml version="1.0" standalone="no"?><!DOCTYPE svg PUBLIC "-//W3C//DTD SVG 1.1//EN" "http://www.w3.org/Graphics/SVG/1.1/DTD/svg11.dtd"><svg width="100%" height="100%" viewBox="0 0 1181 1181" version="1.1" xmlns="http://www.w3.org/2000/svg" xmlns:xlink="http://www.w3.org/1999/xlink" xml:space="preserve" style="fill-rule:evenodd;clip-rule:evenodd;stroke-linejoin:round;stroke-miterlimit:1.41421;"><circle cx="590.551" cy="590.551" r="582.422" style="fill:#FFF;"/><path d="M493.821,869.892c-76.8329,0 -148.353,-22.5194 -208.561,-61.1218c10.6411,1.25332 21.4682,1.9002 32.449,1.9002c63.7498,0 122.413,-21.7513 168.981,-58.2432c-59.537,-1.09969 -109.783,-40.4379 -127.095,-94.4926c8.30429,1.58486 16.8269,2.44197 25.5921,2.44197c12.412,0 24.4277,-1.66571 35.8532,-4.77881c-62.2458,-12.4928 -109.144,-67.4855 -109.144,-133.41c0,-0.574097 0,-1.14012 0.00808538,-1.70615c18.3471,10.1884 39.3221,16.3094 61.6313,17.0129c-36.5081,-24.3954 -60.5316,-66.0462 -60.5316,-113.244c0,-24.9371 6.71136,-48.3137 18.4198,-68.4073c67.1055,82.3152 167.363,136.483 280.446,142.159c-2.32067,-9.95383 -3.52546,-20.3443 -3.52546,-31.0097c0,-75.1348 60.9197,-136.054 136.063,-136.054c39.1361,0 74.4961,16.5277 99.3199,42.9688c30.9854,-6.10493 60.1111,-17.4253 86.3986,-33.015c-10.1641,31.7698 -31.7374,58.4373 -59.8281,75.2723c27.5246,-3.29101 53.7475,-10.6007 78.1509,-21.4278c-18.242,27.2901 -41.3194,51.2489 -67.8979,70.4369c0.266838,5.82999 0.396205,11.7004 0.396205,17.6032c0,179.792 -136.855,387.116 -387.124,387.116Z" style="fill:#000;fill-rule:nonzero;"/></svg>
