<?xml version="1.0" standalone="no"?><!DOCTYPE svg PUBLIC "-//W3C//DTD SVG 1.1//EN" "http://www.w3.org/Graphics/SVG/1.1/DTD/svg11.dtd"><svg width="100%" height="100%" viewBox="0 0 1660 200" version="1.1" xmlns="http://www.w3.org/2000/svg" xmlns:xlink="http://www.w3.org/1999/xlink" xml:space="preserve" style="fill-rule:evenodd;clip-rule:evenodd;stroke-linejoin:round;stroke-miterlimit:1.41421;"><g><g id="Layer1"><g><path d="M135.807,70.7616l38.148,0c-1.17121,-10.3736 -4.01558,-19.5759 -8.5331,-27.6071c-4.51752,-8.03115 -10.2481,-14.7656 -17.1917,-20.2034c-6.9436,-5.43776 -14.8074,-9.57882 -23.5915,-12.4232c-8.78407,-2.84437 -18.1119,-4.26655 -27.9835,-4.26655c-13.7199,0 -26.0594,2.42608 -37.0186,7.27823c-10.9592,4.85215 -20.2034,11.5448 -27.7326,20.0779c-7.5292,8.5331 -13.3016,18.5302 -17.3172,29.9913c-4.01558,11.4611 -6.02336,23.8843 -6.02336,37.2696c0,13.0506 2.00779,25.2228 6.02336,36.5166c4.01558,11.2938 9.78796,21.1236 17.3172,29.4894c7.5292,8.36578 16.7734,14.9329 27.7326,19.7014c10.9592,4.7685 23.2987,7.15274 37.0186,7.15274c11.0428,0 21.1654,-1.67316 30.3678,-5.01947c9.20236,-3.34631 17.2335,-8.19847 24.0935,-14.5565c6.85994,-6.35799 12.3814,-14.0545 16.5642,-23.0896c4.18289,-9.03504 6.77628,-19.1576 7.78018,-30.3678l-38.148,0c-1.50584,12.0467 -5.6469,21.751 -12.4232,29.1129c-6.77628,7.36189 -16.1878,11.0428 -28.2345,11.0428c-8.86773,0 -16.3969,-1.71499 -22.5876,-5.14496c-6.19068,-3.42997 -11.2101,-7.98932 -15.0584,-13.6781c-3.84826,-5.68873 -6.6508,-12.0886 -8.40761,-19.1995c-1.75681,-7.11091 -2.63522,-14.431 -2.63522,-21.9602c0,-7.86384 0.878407,-15.4767 2.63522,-22.8386c1.75681,-7.36189 4.55935,-13.929 8.40761,-19.7014c3.84826,-5.77239 8.86773,-10.3736 15.0584,-13.8035c6.19068,-3.42997 13.7199,-5.14496 22.5876,-5.14496c4.85215,0 9.49516,0.794749 13.929,2.38425c4.43386,1.5895 8.40761,3.80643 11.9212,6.6508c3.51363,2.84437 6.44165,6.14885 8.78407,9.91345c2.34242,3.7646 3.84826,7.90566 4.51752,12.4232Z" style="fill:#000;fill-rule:nonzero;"/><path d="M230.173,124.972c0,-5.18678 0.501947,-10.2899 1.50584,-15.3094c1.00389,-5.01947 2.71888,-9.45333 5.14496,-13.3016c2.42608,-3.84826 5.6469,-6.98543 9.66248,-9.4115c4.01558,-2.42608 9.03504,-3.63912 15.0584,-3.63912c6.02336,0 11.0847,1.21304 15.1839,3.63912c4.09923,2.42608 7.36189,5.56325 9.78796,9.4115c2.42608,3.84826 4.14106,8.28212 5.14496,13.3016c1.00389,5.01947 1.50584,10.1226 1.50584,15.3094c0,5.18678 -0.501947,10.2481 -1.50584,15.1839c-1.00389,4.93581 -2.71888,9.36968 -5.14496,13.3016c-2.42608,3.93192 -5.68873,7.06909 -9.78796,9.4115c-4.09923,2.34242 -9.16053,3.51363 -15.1839,3.51363c-6.02336,0 -11.0428,-1.17121 -15.0584,-3.51363c-4.01558,-2.34242 -7.2364,-5.47959 -9.66248,-9.4115c-2.42608,-3.93192 -4.14106,-8.36578 -5.14496,-13.3016c-1.00389,-4.93581 -1.50584,-9.99711 -1.50584,-15.1839ZM194.535,124.972c0,10.3736 1.5895,19.7432 4.7685,28.109c3.179,8.36578 7.69652,15.5185 13.5526,21.4582c5.85605,5.93971 12.8833,10.4991 21.0818,13.6781c8.19847,3.179 17.4008,4.7685 27.6071,4.7685c10.2063,0 19.4504,-1.5895 27.7326,-4.7685c8.28212,-3.179 15.3512,-7.73835 21.2073,-13.6781c5.85605,-5.93971 10.3736,-13.0924 13.5526,-21.4582c3.179,-8.36578 4.7685,-17.7355 4.7685,-28.109c0,-10.3736 -1.5895,-19.7851 -4.7685,-28.2345c-3.179,-8.44944 -7.69652,-15.644 -13.5526,-21.5837c-5.85605,-5.93971 -12.9251,-10.5409 -21.2073,-13.8035c-8.28212,-3.26265 -17.5263,-4.89398 -27.7326,-4.89398c-10.2063,0 -19.4086,1.63133 -27.6071,4.89398c-8.19847,3.26265 -15.2257,7.86384 -21.0818,13.8035c-5.85605,5.93971 -10.3736,13.1343 -13.5526,21.5837c-3.179,8.44944 -4.7685,17.8609 -4.7685,28.2345Z" style="fill:#000;fill-rule:nonzero;"/><path d="M352.899,59.9697l0,129.753l35.6382,0l0,-75.292c0,-6.35799 0.920236,-11.503 2.76071,-15.4349c1.84047,-3.93192 4.0574,-6.9436 6.6508,-9.03504c2.59339,-2.09145 5.27044,-3.51363 8.03115,-4.26655c2.76071,-0.75292 4.97764,-1.12938 6.6508,-1.12938c5.68873,0 9.99711,0.962065 12.9251,2.88619c2.92802,1.92413 5.01947,4.47569 6.27434,7.65469c1.25487,3.179 1.96596,6.6508 2.13327,10.4154c0.167316,3.7646 0.250973,7.57103 0.250973,11.4193l0,72.7823l35.6382,0l0,-72.2804c0,-4.01558 0.292802,-7.98932 0.878407,-11.9212c0.585605,-3.93192 1.75681,-7.44555 3.51363,-10.5409c1.75681,-3.09534 4.18289,-5.60507 7.27823,-7.5292c3.09534,-1.92413 7.15274,-2.88619 12.1722,-2.88619c5.01947,0 8.99322,0.836578 11.9212,2.50973c2.92802,1.67316 5.14496,3.93192 6.6508,6.77628c1.50584,2.84437 2.42608,6.19068 2.76071,10.0389c0.334631,3.84826 0.501947,7.94749 0.501947,12.2977l0,73.5352l35.6382,0l0,-86.8368c0,-8.36578 -1.17121,-15.5185 -3.51363,-21.4582c-2.34242,-5.93971 -5.60507,-10.75 -9.78796,-14.431c-4.18289,-3.68094 -9.20236,-6.35799 -15.0584,-8.03115c-5.85605,-1.67316 -12.214,-2.50973 -19.074,-2.50973c-9.03504,0 -16.8571,2.1751 -23.466,6.52531c-6.60897,4.35021 -11.8376,9.36968 -15.6858,15.0584c-3.51363,-8.03115 -8.65858,-13.6362 -15.4349,-16.8152c-6.77628,-3.179 -14.2637,-4.7685 -22.4621,-4.7685c-8.5331,0 -16.1041,1.84047 -22.7131,5.52142c-6.60897,3.68094 -12.2559,8.86773 -16.9407,15.5604l-0.501947,0l0,-17.5681l-33.6304,0Z" style="fill:#000;fill-rule:nonzero;"/><path d="M624.453,59.9697l0,-38.9009l-35.6382,0l0,38.9009l-21.5837,0l0,23.8425l21.5837,0l0,76.5469c0,6.52531 1.08755,11.7958 3.26265,15.8113c2.1751,4.01558 5.14496,7.11091 8.90956,9.28602c3.7646,2.1751 8.11481,3.63912 13.0506,4.39204c4.93581,0.75292 10.1644,1.12938 15.6858,1.12938c3.51363,0 7.11091,-0.0836578 10.7919,-0.250973c3.68094,-0.167316 7.02726,-0.501947 10.0389,-1.00389l0,-27.6071c-1.67316,0.334631 -3.42997,0.585605 -5.27044,0.75292c-1.84047,0.167316 -3.7646,0.250973 -5.77239,0.250973c-6.02336,0 -10.0389,-1.00389 -12.0467,-3.01168c-2.00779,-2.00779 -3.01168,-6.02336 -3.01168,-12.0467l0,-64.2492l26.1012,0l0,-23.8425l-26.1012,0Z" style="fill:#000;fill-rule:nonzero;"/><path d="M754.959,110.917l-57.9749,0c0.167316,-2.50973 0.711091,-5.3541 1.63133,-8.5331c0.920236,-3.179 2.50973,-6.19068 4.7685,-9.03504c2.25876,-2.84437 5.27044,-5.22861 9.03504,-7.15274c3.7646,-1.92413 8.49127,-2.88619 14.18,-2.88619c8.70041,0 15.1839,2.34242 19.4504,7.02726c4.26655,4.68484 7.2364,11.5448 8.90956,20.5798ZM696.984,133.505l93.6131,0c0.669263,-10.0389 -0.167316,-19.6596 -2.50973,-28.8619c-2.34242,-9.20236 -6.14885,-17.4008 -11.4193,-24.5954c-5.27044,-7.19457 -12.0049,-12.9251 -20.2034,-17.1917c-8.19847,-4.26655 -17.8191,-6.39982 -28.8619,-6.39982c-9.87162,0 -18.8648,1.75681 -26.9796,5.27044c-8.11481,3.51363 -15.1002,8.32395 -20.9563,14.431c-5.85605,6.10702 -10.3736,13.3434 -13.5526,21.7092c-3.179,8.36578 -4.7685,17.4008 -4.7685,27.1051c0,10.0389 1.54767,19.2413 4.64301,27.6071c3.09534,8.36578 7.48737,15.5604 13.1761,21.5837c5.68873,6.02336 12.6323,10.6664 20.8308,13.929c8.19847,3.26265 17.4008,4.89398 27.6071,4.89398c14.7238,0 27.2724,-3.34631 37.646,-10.0389c10.3736,-6.69263 18.0701,-17.8191 23.0896,-33.3795l-31.3717,0c-1.17121,4.01558 -4.35021,7.82201 -9.53699,11.4193c-5.18678,3.59729 -11.3775,5.39593 -18.572,5.39593c-10.0389,0 -17.7355,-2.59339 -23.0896,-7.78018c-5.3541,-5.18678 -8.28212,-13.5526 -8.78407,-25.0973Z" style="fill:#000;fill-rule:nonzero;"/><path d="M911.315,87.5768l0,-56.971l47.685,0c5.18678,0 10.0808,0.292802 14.6819,0.878407c4.60118,0.585605 8.65858,1.8823 12.1722,3.89009c3.51363,2.00779 6.27434,4.85215 8.28212,8.5331c2.00779,3.68094 3.01168,8.70041 3.01168,15.0584c0,9.53699 -2.96985,16.6897 -8.90956,21.4582c-5.93971,4.7685 -15.6858,7.15274 -29.2384,7.15274l-47.685,0ZM887.473,10.528l0,179.195l86.5858,0c8.86773,0 16.6897,-1.46401 23.466,-4.39204c6.77628,-2.92802 12.465,-6.77628 17.0662,-11.5448c4.60118,-4.7685 8.07298,-10.2481 10.4154,-16.4388c2.34242,-6.19068 3.51363,-12.5487 3.51363,-19.074c0,-11.0428 -2.92802,-20.4125 -8.78407,-28.109c-5.85605,-7.69652 -14.3055,-12.716 -25.3483,-15.0584l0,-0.501947c8.5331,-3.34631 15.1002,-8.49127 19.7014,-15.4349c4.60118,-6.9436 6.90177,-15.1839 6.90177,-24.7209c0,-9.03504 -2.04962,-16.6479 -6.14885,-22.8386c-4.09923,-6.19068 -9.07687,-11.0428 -14.9329,-14.5565c-2.67705,-1.67316 -5.89788,-2.92802 -9.66248,-3.7646c-3.7646,-0.836578 -7.82201,-1.46401 -12.1722,-1.8823c-4.35021,-0.418289 -8.74224,-0.669263 -13.1761,-0.75292c-4.43386,-0.0836578 -8.57493,-0.125487 -12.4232,-0.125487l-65.0021,0ZM911.315,169.645l0,-61.9904l54.4612,0c5.01947,0 9.87162,0.460118 14.5565,1.38035c4.68484,0.920236 8.8259,2.50973 12.4232,4.7685c3.59729,2.25876 6.48348,5.31227 8.65858,9.16053c2.1751,3.84826 3.26265,8.70041 3.26265,14.5565c0,10.0389 -2.96985,17.9028 -8.90956,23.5915c-5.93971,5.68873 -14.18,8.5331 -24.7209,8.5331l-59.7317,0Z" style="fill:#000;fill-rule:nonzero;"/><path d="M1163.29,189.723l0,-129.753l-21.3327,0l0,73.2843c0,5.85605 -0.794749,11.252 -2.38425,16.1878c-1.5895,4.93581 -3.97375,9.24419 -7.15274,12.9251c-3.179,3.68094 -7.15274,6.52531 -11.9212,8.5331c-4.7685,2.00779 -10.4154,3.01168 -16.9407,3.01168c-8.19847,0 -14.6401,-2.34242 -19.325,-7.02726c-4.68484,-4.68484 -7.02726,-11.0428 -7.02726,-19.074l0,-87.8407l-21.3327,0l0,85.331c0,7.02726 0.711091,13.4271 2.13327,19.1995c1.42218,5.77239 3.89009,10.75 7.40372,14.9329c3.51363,4.18289 8.11481,7.40372 13.8035,9.66248c5.68873,2.25876 12.7996,3.38814 21.3327,3.38814c9.53699,0 17.8191,-1.8823 24.8464,-5.6469c7.02726,-3.7646 12.7996,-9.66248 17.3172,-17.6936l0.501947,0l0,20.5798l20.0779,0Z" style="fill:#000;fill-rule:nonzero;"/><path d="M1194.66,59.9697l0,129.753l21.3327,0l0,-57.7239c0,-8.36578 0.836578,-15.7695 2.50973,-22.2112c1.67316,-6.44165 4.35021,-11.9212 8.03115,-16.4388c3.68094,-4.51752 8.5331,-7.94749 14.5565,-10.2899c6.02336,-2.34242 13.3016,-3.51363 21.8347,-3.51363l0,-22.5876c-11.5448,-0.334631 -21.0818,2.00779 -28.611,7.02726c-7.5292,5.01947 -13.8872,12.7996 -19.074,23.3405l-0.501947,0l0,-27.3561l-20.0779,0Z" style="fill:#000;fill-rule:nonzero;"/><path d="M1364.57,112.423l-74.5391,0c0.334631,-5.01947 1.42218,-9.74614 3.26265,-14.18c1.84047,-4.43386 4.35021,-8.32395 7.5292,-11.6703c3.179,-3.34631 6.98543,-5.98153 11.4193,-7.90566c4.43386,-1.92413 9.4115,-2.88619 14.9329,-2.88619c5.3541,0 10.2481,0.962065 14.6819,2.88619c4.43386,1.92413 8.28212,4.51752 11.5448,7.78018c3.26265,3.26265 5.85605,7.15274 7.78018,11.6703c1.92413,4.51752 3.05351,9.28602 3.38814,14.3055ZM1385.15,148.563l-21.0818,0c-1.84047,8.5331 -5.6469,14.8911 -11.4193,19.074c-5.77239,4.18289 -13.1761,6.27434 -22.2112,6.27434c-7.02726,0 -13.1343,-1.17121 -18.3211,-3.51363c-5.18678,-2.34242 -9.45333,-5.47959 -12.7996,-9.4115c-3.34631,-3.93192 -5.77239,-8.44944 -7.27823,-13.5526c-1.50584,-5.10313 -2.1751,-10.4991 -2.00779,-16.1878l97.1267,0c0.334631,-7.86384 -0.37646,-16.146 -2.13327,-24.8464c-1.75681,-8.70041 -4.93581,-16.7316 -9.53699,-24.0935c-4.60118,-7.36189 -10.7082,-13.4271 -18.3211,-18.1956c-7.61286,-4.7685 -17.1917,-7.15274 -28.7365,-7.15274c-8.86773,0 -17.0244,1.67316 -24.4699,5.01947c-7.44555,3.34631 -13.8872,8.03115 -19.325,14.0545c-5.43776,6.02336 -9.66248,13.1343 -12.6742,21.3327c-3.01168,8.19847 -4.51752,17.2335 -4.51752,27.1051c0.334631,9.87162 1.79864,18.9903 4.39204,27.3561c2.59339,8.36578 6.48348,15.5604 11.6703,21.5837c5.18678,6.02336 11.5866,10.7082 19.1995,14.0545c7.61286,3.34631 16.6061,5.01947 26.9796,5.01947c14.7238,0 26.9378,-3.68094 36.6421,-11.0428c9.70431,-7.36189 15.9786,-18.3211 18.823,-32.8775Z" style="fill:#000;fill-rule:nonzero;"/><path d="M1524.19,189.221c-3.68094,2.1751 -8.78407,3.26265 -15.3094,3.26265c-5.52142,0 -9.91345,-1.54767 -13.1761,-4.64301c-3.26265,-3.09534 -4.89398,-8.15664 -4.89398,-15.1839c-5.85605,7.02726 -12.6742,12.0886 -20.4543,15.1839c-7.78018,3.09534 -16.1878,4.64301 -25.2228,4.64301c-5.85605,0 -11.4193,-0.669263 -16.6897,-2.00779c-5.27044,-1.33853 -9.82979,-3.42997 -13.6781,-6.27434c-3.84826,-2.84437 -6.90177,-6.56714 -9.16053,-11.1683c-2.25876,-4.60118 -3.38814,-10.1644 -3.38814,-16.6897c0,-7.36189 1.25487,-13.3853 3.7646,-18.0701c2.50973,-4.68484 5.81422,-8.49127 9.91345,-11.4193c4.09923,-2.92802 8.78407,-5.14496 14.0545,-6.6508c5.27044,-1.50584 10.6664,-2.76071 16.1878,-3.7646c5.85605,-1.17121 11.4193,-2.04962 16.6897,-2.63522c5.27044,-0.585605 9.91345,-1.42218 13.929,-2.50973c4.01558,-1.08755 7.19457,-2.67705 9.53699,-4.7685c2.34242,-2.09145 3.51363,-5.14496 3.51363,-9.16053c0,-4.68484 -0.878407,-8.44944 -2.63522,-11.2938c-1.75681,-2.84437 -4.01558,-5.01947 -6.77628,-6.52531c-2.76071,-1.50584 -5.85605,-2.50973 -9.28602,-3.01168c-3.42997,-0.501947 -6.81811,-0.75292 -10.1644,-0.75292c-9.03504,0 -16.5642,1.71499 -22.5876,5.14496c-6.02336,3.42997 -9.28602,9.91345 -9.78796,19.4504l-21.3327,0c0.334631,-8.03115 2.00779,-14.8074 5.01947,-20.3289c3.01168,-5.52142 7.02726,-9.99711 12.0467,-13.4271c5.01947,-3.42997 10.75,-5.89788 17.1917,-7.40372c6.44165,-1.50584 13.3434,-2.25876 20.7053,-2.25876c5.85605,0 11.6703,0.418289 17.4427,1.25487c5.77239,0.836578 11.001,2.55156 15.6858,5.14496c4.68484,2.59339 8.44944,6.23251 11.2938,10.9173c2.84437,4.68484 4.26655,10.7919 4.26655,18.3211l0,66.7589c0,5.01947 0.292802,8.70041 0.878407,11.0428c0.585605,2.34242 2.55156,3.51363 5.89788,3.51363c1.84047,0 4.01558,-0.418289 6.52531,-1.25487l0,16.5642ZM1489.56,122.713c-2.67705,2.00779 -6.19068,3.4718 -10.5409,4.39204c-4.35021,0.920236 -8.90956,1.67316 -13.6781,2.25876c-4.7685,0.585605 -9.57882,1.25487 -14.431,2.00779c-4.85215,0.75292 -9.20236,1.96596 -13.0506,3.63912c-3.84826,1.67316 -6.98543,4.0574 -9.4115,7.15274c-2.42608,3.09534 -3.63912,7.32006 -3.63912,12.6742c0,3.51363 0.711091,6.48348 2.13327,8.90956c1.42218,2.42608 3.26265,4.39204 5.52142,5.89788c2.25876,1.50584 4.89398,2.59339 7.90566,3.26265c3.01168,0.669263 6.19068,1.00389 9.53699,1.00389c7.02726,0 13.0506,-0.962065 18.0701,-2.88619c5.01947,-1.92413 9.1187,-4.35021 12.2977,-7.27823c3.179,-2.92802 5.52142,-6.10702 7.02726,-9.53699c1.50584,-3.42997 2.25876,-6.6508 2.25876,-9.66248l0,-21.8347Z" style="fill:#000;fill-rule:nonzero;"/><path d="M1651.44,189.723l0,-129.753l-21.3327,0l0,73.2843c0,5.85605 -0.794749,11.252 -2.38425,16.1878c-1.5895,4.93581 -3.97375,9.24419 -7.15274,12.9251c-3.179,3.68094 -7.15274,6.52531 -11.9212,8.5331c-4.7685,2.00779 -10.4154,3.01168 -16.9407,3.01168c-8.19847,0 -14.6401,-2.34242 -19.325,-7.02726c-4.68484,-4.68484 -7.02726,-11.0428 -7.02726,-19.074l0,-87.8407l-21.3327,0l0,85.331c0,7.02726 0.711091,13.4271 2.13327,19.1995c1.42218,5.77239 3.89009,10.75 7.40372,14.9329c3.51363,4.18289 8.11481,7.40372 13.8035,9.66248c5.68873,2.25876 12.7996,3.38814 21.3327,3.38814c9.53699,0 17.8191,-1.8823 24.8464,-5.6469c7.02726,-3.7646 12.7996,-9.66248 17.3172,-17.6936l0.501947,0l0,20.5798l20.0779,0Z" style="fill:#000;fill-rule:nonzero;"/></g></g></g></svg>