<?xml version="1.0" standalone="no"?><!DOCTYPE svg PUBLIC "-//W3C//DTD SVG 1.1//EN" "http://www.w3.org/Graphics/SVG/1.1/DTD/svg11.dtd"><svg width="100%" height="100%" viewBox="0 0 566 566" version="1.1" xmlns="http://www.w3.org/2000/svg" xmlns:xlink="http://www.w3.org/1999/xlink" xml:space="preserve" style="fill-rule:evenodd;clip-rule:evenodd;stroke-linejoin:round;stroke-miterlimit:1.41421;"><g id="Layer1"><g id="Layer 2"><path d="M283.278,410.005c-31.5053,0 -63.0105,-11.9906 -86.9946,-35.9753l-194.319,-194.318l22.1471,-22.1478l194.319,194.319c35.762,35.7569 93.9438,35.7511 129.695,0l194.319,-194.319l22.1471,22.1478l-194.319,194.318c-23.984,23.9848 -55.4893,35.9753 -86.9946,35.9753" style="fill:#fafa51;fill-rule:nonzero;"/><path d="M542.445,410.004l-194.319,-194.318c-35.7569,-35.754 -93.938,-35.7598 -129.695,0l-194.32,194.318l-22.1464,-22.1471l194.319,-194.318c47.9739,-47.9688 126.025,-47.9637 173.989,0l194.319,194.318l-22.1471,22.1471Z" style="fill:#fafa51;fill-rule:nonzero;"/><path d="M283.277,264.422c-10.6744,0 -19.3607,8.6863 -19.3607,19.3607c0,10.6773 8.6863,19.3635 19.3607,19.3635c10.6773,0 19.3635,-8.6863 19.3635,-19.3635c0,-10.6744 -8.6863,-19.3607 -19.3635,-19.3607M283.277,334.465c-27.9443,0 -50.6793,-22.7351 -50.6793,-50.6822c0,-27.9443 22.7351,-50.6793 50.6793,-50.6793c27.9472,0 50.683,22.7351 50.683,50.6793c0,27.9472 -22.7358,50.6822 -50.683,50.6822" style="fill:#fafa51;fill-rule:nonzero;"/></g></g></svg>