<?xml version="1.0" standalone="no"?><!DOCTYPE svg PUBLIC "-//W3C//DTD SVG 1.1//EN" "http://www.w3.org/Graphics/SVG/1.1/DTD/svg11.dtd"><svg width="100%" height="100%" viewBox="0 0 566 566" version="1.1" xmlns="http://www.w3.org/2000/svg" xmlns:xlink="http://www.w3.org/1999/xlink" xml:space="preserve" style="fill-rule:evenodd;clip-rule:evenodd;stroke-linejoin:round;stroke-miterlimit:1.41421;"><g id="Layer1"><g id="Layer 2"><path d="M378.686,421.821c-11.8819,0 -21.5501,9.66826 -21.5501,21.5525c0,11.8811 9.66826,21.5493 21.5501,21.5493c11.8843,0 21.5453,-9.66826 21.5453,-21.5493c0,-11.8843 -9.66101,-21.5525 -21.5453,-21.5525M378.686,499.782c-31.1041,0 -56.4101,-25.3052 -56.4101,-56.4085c0,-31.1065 25.306,-56.4125 56.4101,-56.4125c31.1057,0 56.4109,25.306 56.4109,56.4125c0,31.1033 -25.3052,56.4085 -56.4109,56.4085" style="fill:#fafa51;fill-rule:nonzero;"/><path d="M58.9262,255.791c-11.8811,0 -21.5493,9.66906 -21.5493,21.5525c0,11.8811 9.66826,21.5493 21.5493,21.5493c11.8811,0 21.5493,-9.66826 21.5493,-21.5493c0,-11.8835 -9.66826,-21.5525 -21.5493,-21.5525M58.9262,333.753c-31.1041,0 -56.4085,-25.306 -56.4085,-56.4093c0,-31.1065 25.3044,-56.4117 56.4085,-56.4117c31.1033,0 56.4093,25.3052 56.4093,56.4117c0,31.1033 -25.306,56.4093 -56.4093,56.4093" style="fill:#fafa51;fill-rule:nonzero;"/><rect x="99.2912" y="269.506" width="442.723" height="37.0277" style="fill:#fafa51;fill-rule:nonzero;"/><path d="M484.725,364.31l-24.658,-24.6508l55.0433,-55.0433l-55.0433,-55.0457l24.658,-24.6508l79.6869,79.6965l-79.6869,79.6941Z" style="fill:#fafa51;fill-rule:nonzero;"/><rect x="234.523" y="98.0519" width="37.0277" height="189.968" style="fill:#fafa51;fill-rule:nonzero;"/><path d="M305.853,171.492l-55.0457,-55.0425l-55.0425,55.0425l-24.6516,-24.6516l79.6941,-79.6933l79.6973,79.6933l-24.6516,24.6516Z" style="fill:#fafa51;fill-rule:nonzero;"/><rect x="364.12" y="282.386" width="37.0277" height="123.157" style="fill:#fafa51;fill-rule:nonzero;"/></g></g></svg>