<?xml version="1.0" standalone="no"?><!DOCTYPE svg PUBLIC "-//W3C//DTD SVG 1.1//EN" "http://www.w3.org/Graphics/SVG/1.1/DTD/svg11.dtd"><svg width="100%" height="100%" viewBox="0 0 566 566" version="1.1" xmlns="http://www.w3.org/2000/svg" xmlns:xlink="http://www.w3.org/1999/xlink" xml:space="preserve" style="fill-rule:evenodd;clip-rule:evenodd;stroke-linejoin:round;stroke-miterlimit:1.41421;"><g id="Layer1"><g id="Layer 2"><path d="M332.425,422.706c-84.613,0 -153.449,-70.02 -153.449,-154.02l43.314,0c0,61 49.401,110.713 110.135,110.713c60.733,0 110.135,-49.122 110.135,-109.851c0,-60.73 -49.402,-109.996 -110.135,-109.996c-23.604,0 -46.111,7.431 -65.082,21.349l-25.619,-34.886c26.453,-19.404 57.816,-29.644 90.701,-29.644c84.614,0 153.449,68.557 153.449,153.168c0,84.61 -68.835,153.167 -153.449,153.167" style="fill:#fafa51;fill-rule:nonzero;"/><path d="M109.507,260.686l181.252,0l-90.625,-160.268l-90.627,160.268ZM369.405,306.686l-338.47,0l169.242,-299.312l169.228,299.312Z" style="fill:#fafa51;fill-rule:nonzero;"/><path d="M562.465,559.555c-38,0 -65.749,-25.081 -84.175,-45.239c-16.541,-18.083 -27.66,-31.154 -53.041,-31.154c-25.387,0 -36.922,13.071 -53.461,31.158c-18.427,20.154 -41.16,45.235 -85.631,45.235c-44.477,0 -67.313,-25.081 -85.748,-45.235c-16.539,-18.087 -28.438,-31.158 -53.832,-31.158c-25.395,0 -38.533,13.071 -55.072,31.158c-18.436,20.154 -41.04,45.235 -87.04,45.235l0,-43.307c31,0 38.565,-13.07 55.106,-31.157c18.434,-20.154 41.981,-45.235 86.451,-45.235c44.469,0 67.714,25.081 86.147,45.235c16.541,18.087 28.65,31.157 54.046,31.157c25.387,0 37.413,-13.07 53.952,-31.157c18.427,-20.154 41.406,-45.235 85.875,-45.235c44.463,0 65.761,25.081 84.188,45.235c16.54,18.087 29.235,31.157 52.235,31.157l0,43.307Z" style="fill:#fafa51;fill-rule:nonzero;"/></g></g></svg>