<?xml version="1.0" standalone="no"?><!DOCTYPE svg PUBLIC "-//W3C//DTD SVG 1.1//EN" "http://www.w3.org/Graphics/SVG/1.1/DTD/svg11.dtd"><svg width="100%" height="100%" viewBox="0 0 1141 929" version="1.1" xmlns="http://www.w3.org/2000/svg" xmlns:xlink="http://www.w3.org/1999/xlink" xml:space="preserve" style="fill-rule:evenodd;clip-rule:evenodd;stroke-linejoin:round;stroke-miterlimit:1.41421;"><g><path d="M358.236,929.167c-131.972,0 -254.819,-38.6806 -358.236,-104.986c18.2778,2.15278 36.875,3.26389 55.7361,3.26389c109.5,0 210.264,-37.3611 290.25,-100.042c-102.264,-1.88888 -188.569,-69.4583 -218.306,-162.306c14.2639,2.72223 28.9028,4.19445 43.9583,4.19445c21.3195,0 41.9583,-2.86112 61.5833,-8.20834c-106.917,-21.4583 -187.472,-115.917 -187.472,-229.153c0,-0.986099 0,-1.95834 0.0138879,-2.93058c31.5139,17.5001 67.5417,28.0139 105.861,29.2222c-62.7083,-41.9028 -103.972,-113.444 -103.972,-194.514c0,-42.8333 11.5278,-82.9861 31.6389,-117.5c115.264,141.389 287.472,234.431 481.708,244.181c-3.9861,-17.0972 -6.05551,-34.9445 -6.05551,-53.2639c0,-129.056 104.639,-233.694 233.708,-233.694c67.2222,0 127.958,28.3888 170.597,73.8056c53.2222,-10.4862 103.25,-29.9306 148.403,-56.7083c-17.4583,54.5694 -54.5139,100.375 -102.764,129.292c47.2778,-5.65281 92.3195,-18.2084 134.236,-36.8056c-31.3334,46.875 -70.9723,88.0278 -116.625,120.986c0.458336,10.0139 0.680542,20.0972 0.680542,30.2361c0,308.819 -235.069,664.931 -664.944,664.931Z" style="fill:#000;fill-rule:nonzero;"/></g></svg>